#!OML:ASF \\sashay\E\Suitcase\Project 1\Capture day 1\Session 1\Male1.ASF
:FULLY-SPECIFIED
:DEGREES
781
root -0.429523 17.3511 20.7602 7.2516 12.2507 -0.919232
lowerback -0.233929 -2.69489 3.31967
upperback 0.210835 -3.61216 4.5555
thorax 0.437709 -1.80061 2.79973
lowerneck -9.45499 -2.47807 -6.11528
upperneck 37.7969 -0.256566 -4.93953
head 14.7417 -1.57472 -0.993012
rclavicle 4.49253e-014 -3.18055e-015
rhumerus -48.1422 -43.867 -44.9207
rradius 13.4329
rwrist 13.0436
rhand -15.8553 18.5769
rfingers 7.12502
rthumb 10.3398 -11.1489
lclavicle 4.49253e-014 -3.18055e-015
lhumerus -35.6984 0.0802871 90.3188
lradius 34.8723
lwrist -3.8785
lhand -5.42413 43.1369
lfingers 7.12502
lthumb 20.3859 72.0868
rfemur -4.0414 -2.00488 26.3628
rtibia 11.9626
rfoot -14.9873 -19.5187
rtoes 15.2506
lfemur -7.02617 -8.0545 -11.8932
ltibia 13.2933
lfoot -14.9223 -0.931703
ltoes -7.73808
782
root -0.431705 17.35 20.7688 7.26933 12.307 -1.04832
lowerback -0.170888 -2.7845 3.48831
upperback 0.206422 -3.72742 4.62069
thorax 0.394402 -1.85789 2.77634
lowerneck -9.57236 -2.42759 -6.26821
upperneck 37.8766 -0.195268 -4.76205
head 14.8096 -1.5515 -0.887838
rclavicle -1.98785e-016 1.11319e-014
rhumerus -48.4171 -43.5134 -44.8799
rradius 13.3665
rwrist 12.3882
rhand -16.0729 18.4547
rfingers 7.12502
rthumb 10.1298 -11.2815
lclavicle -1.98785e-016 1.11319e-014
lhumerus -35.585 0.0633084 90.3479
lradius 34.7878
lwrist -3.56746
lhand -4.75147 43.4021
lfingers 7.12502
lthumb 21.0322 72.2816
rfemur -4.02458 -1.89814 26.5365
rtibia 11.8744
rfoot -14.8091 -19.7032
rtoes 15.3553
lfemur -7.06833 -7.93464 -11.727
ltibia 13.3123
lfoot -14.8792 -1.01838
ltoes -8.0993
783
root -0.430634 17.3478 20.7764 7.31048 12.2841 -1.16264
lowerback -0.0977528 -2.72804 3.72898
upperback 0.135094 -3.64256 4.65753
thorax 0.265514 -1.81554 2.68736
lowerneck -9.38377 -2.45987 -6.63301
upperneck 37.8953 -0.298405 -4.40507
head 14.7811 -1.59771 -0.68759
rclavicle 2.32578e-014 -3.65764e-014
rhumerus -49.3145 -43.2888 -44.1524
rradius 13.3005
rwrist 12.3179
rhand -16.2821 18.902
rfingers 7.12502
rthumb 9.92801 -10.8439
lclavicle 2.32578e-014 -3.65764e-014
lhumerus -35.5975 -0.548573 90.6654
lradius 34.8019
lwrist -3.18723
lhand -5.05273 42.7661
lfingers 7.12502
lthumb 20.7427 71.6775
rfemur -4.12634 -1.89486 26.6548
rtibia 12.0267
rfoot -15.2104 -19.5885
rtoes 16.3718
lfemur -6.95022 -7.8844 -11.6053
ltibia 13.0251
lfoot -14.654 -0.7034
ltoes -6.54683
784
root -0.437913 17.3473 20.7912 7.32503 12.1712 -1.25999
lowerback -0.13053 -2.68194 3.76613
upperback 0.156266 -3.58485 4.74494
thorax 0.307941 -1.78632 2.75479
lowerneck -9.35234 -2.48992 -6.98398
upperneck 37.983 -0.348004 -4.1465
head 14.8241 -1.6362 -0.527665
rclavicle 1.51076e-014 -6.36111e-015
rhumerus -50.1858 -43.4714 -43.1243
rradius 13.1662
rwrist 12.9994
rhand -16.4163 18.2888
rfingers 7.12502
rthumb 9.79856 -11.4632
lclavicle 1.51076e-014 -6.36111e-015
lhumerus -35.6037 -0.824166 90.8829
lradius 35.0866
lwrist -2.88132
lhand -5.05261 43.045
lfingers 7.12502
lthumb 20.7429 71.9563
rfemur -4.23033 -1.63928 26.8179
rtibia 12.1288
rfoot -14.9868 -19.8405
rtoes 15.1599
lfemur -6.86197 -7.83322 -11.4691
ltibia 12.9148
lfoot -14.9976 -0.710004
ltoes -9.85127
785
root -0.439068 17.3559 20.7985 7.54004 12.1891 -1.0367
lowerback -0.269234 -2.82375 3.57709
upperback 0.226984 -3.78808 4.7178
thorax 0.473072 -1.88748 2.82103
lowerneck -9.65104 -2.40529 -7.13781
upperneck 38.0146 -0.224931 -3.95654
head 14.909 -1.58685 -0.408518
rclavicle -2.88238e-014 2.70347e-014
rhumerus -50.7156 -44.0908 -42.1845
rradius 12.8818
rwrist 13.8893
rhand -16.3527 18.2924
rfingers 7.12502
rthumb 9.85989 -11.4567
lclavicle -2.88238e-014 2.70347e-014
lhumerus -35.5372 -0.650927 90.7868
lradius 35.51
lwrist -2.82411
lhand -5.52772 43.2321
lfingers 7.12502
lthumb 20.2863 72.1927
rfemur -4.4719 -1.25945 26.537
rtibia 12.1567
rfoot -15.3943 -20.0902
rtoes 16.6959
lfemur -7.0348 -7.73003 -11.6903
ltibia 12.9299
lfoot -14.8304 -0.54448
ltoes -9.78571
786
root -0.432933 17.3459 20.8059 7.55146 12.21 -0.938225
lowerback -0.265112 -3.18181 3.47318
upperback 0.31751 -4.27044 4.57401
thorax 0.571698 -2.12826 2.72426
lowerneck -9.6819 -1.98315 -6.3963
upperneck 37.8918 0.265728 -4.13952
head 14.8329 -1.29978 -0.53891
rclavicle -2.36554e-014 0
rhumerus -51.3846 -44.5677 -41.5564
rradius 12.5881
rwrist 15.2941
rhand -15.9337 18.3924
rfingers 7.12502
rthumb 10.2641 -11.3372
lclavicle -2.36554e-014 0
lhumerus -35.6832 -0.0518329 90.1258
lradius 35.8836
lwrist -2.79067
lhand -5.41821 42.8204
lfingers 7.12502
lthumb 20.3915 71.7698
rfemur -4.39333 -1.82559 26.4625
rtibia 12.2295
rfoot -15.2081 -19.7459
rtoes 16.3771
lfemur -6.95545 -7.80362 -11.8243
ltibia 12.8764
lfoot -15.0175 -0.743808
ltoes -10.4003
787
root -0.435347 17.3345 20.8176 7.415 12.1969 -1.21764
lowerback -0.240865 -3.23417 3.78334
upperback 0.40436 -4.34461 4.65184
thorax 0.632438 -2.1629 2.63096
lowerneck -9.7272 -1.90443 -6.50784
upperneck 37.9209 0.364419 -3.99937
head 14.8568 -1.25719 -0.447245
rclavicle -6.24184e-014 1.03368e-013
rhumerus -51.7386 -44.4033 -41.2681
rradius 12.5616
rwrist 15.0227
rhand -16.4071 18.0137
rfingers 7.12502
rthumb 9.80738 -11.7379
lclavicle -6.24184e-014 1.03368e-013
lhumerus -35.7382 -0.0701527 90.1518
lradius 36.2828
lwrist -2.79984
lhand -5.47301 42.8092
lfingers 7.12502
lthumb 20.3389 71.7642
rfemur -4.2175 -1.72461 26.8165
rtibia 12.272
rfoot -15.6181 -19.709
rtoes 16.2935
lfemur -6.80885 -7.65476 -11.5144
ltibia 12.8642
lfoot -14.711 -0.595573
ltoes -9.75003
